<?xml version="1.0" standalone="no"?>
<!DOCTYPE svg PUBLIC "-//W3C//DTD SVG 20010904//EN"
 "http://www.w3.org/TR/2001/REC-SVG-20010904/DTD/svg10.dtd">
<svg version="1.0" xmlns="http://www.w3.org/2000/svg"
 width="249.000000pt" height="103.000000pt" viewBox="0 0 249.000000 103.000000"
 preserveAspectRatio="xMidYMid meet">

<g transform="translate(0.000000,103.000000) scale(0.100000,-0.100000)"
fill="#000000" stroke="none">
<path d="M305 990 c-12 -23 -16 -47 -12 -79 l5 -45 -18 24 c-16 21 -21 23 -44
12 -28 -13 -35 -49 -14 -70 17 -17 39 -15 32 3 -7 18 23 32 38 17 8 -8 8 -15
-1 -26 -7 -8 -10 -20 -6 -26 10 -16 -14 -40 -41 -40 -27 0 -40 16 -25 33 7 9
4 16 -10 26 -18 10 -23 10 -34 -6 -8 -10 -9 -19 -4 -21 16 -6 10 -31 -12 -42
-23 -13 -53 4 -45 26 3 7 -2 15 -10 18 -8 3 -14 12 -14 20 0 21 28 27 39 8 9
-16 11 -16 26 -1 32 32 -6 80 -49 63 -9 -3 -16 -16 -17 -28 0 -15 -5 -10 -18
19 -10 22 -29 49 -41 60 l-23 20 8 -20 c5 -11 23 -63 41 -115 21 -58 39 -96
49 -98 19 -4 19 -18 0 -26 -8 -3 -15 -12 -15 -19 0 -12 10 -12 63 1 83 21 264
21 340 0 45 -13 57 -13 57 -3 0 7 -7 19 -16 26 -14 12 -14 14 2 19 12 5 30 42
55 114 l37 108 -29 -28 c-16 -15 -30 -39 -30 -53 -2 -24 -2 -24 -6 -4 -5 27
-46 41 -68 23 -17 -14 -20 -56 -4 -65 5 -4 19 1 29 10 19 17 20 17 26 0 5 -11
1 -22 -8 -29 -8 -6 -13 -17 -10 -25 4 -12 -13 -30 -30 -31 -16 0 -39 33 -29
43 6 6 6 17 -1 33 -10 21 -12 21 -26 7 -9 -9 -16 -25 -17 -37 0 -14 -7 -22
-24 -24 -30 -5 -37 4 -46 56 -6 35 -4 42 10 42 9 0 19 -9 22 -20 6 -24 16 -25
37 -4 21 20 20 37 -2 57 -24 22 -48 22 -60 1 -7 -12 -9 -7 -10 22 0 22 -7 54
-15 73 l-15 35 -17 -34z m25 -77 c0 -35 -3 -44 -10 -33 -13 20 -13 80 0 80 6
0 10 -21 10 -47z m-77 -51 c-20 -21 -28 -20 -20 3 4 8 13 15 22 15 13 0 12 -3
-2 -18z m157 3 c20 -24 4 -29 -19 -6 -14 14 -17 21 -7 21 7 0 19 -7 26 -15z
m-265 -16 c11 -17 2 -18 -19 -3 -17 12 -17 14 -4 14 9 0 20 -5 23 -11z m379
-4 c-25 -19 -40 -19 -24 0 7 8 20 15 28 15 13 0 12 -3 -4 -15z m-181 -97 c16
-12 16 -14 -2 -25 -15 -9 -23 -9 -37 2 -17 13 -17 16 -4 25 19 13 23 12 43 -2z
m-106 -15 c5 -14 -40 -28 -56 -18 -16 10 -13 23 7 28 26 7 45 3 49 -10z m229
3 c18 -14 18 -15 1 -22 -10 -3 -30 -1 -45 5 -21 10 -23 14 -11 22 20 12 32 11
55 -5z"/>
<path d="M172 666 c-41 -8 -77 -18 -80 -22 -4 -4 9 -4 28 0 117 24 250 25 405
2 37 -5 36 -5 -10 9 -73 22 -255 28 -343 11z"/>
<path d="M13 604 c-8 -23 10 -36 41 -28 32 8 34 29 4 38 -34 9 -38 8 -45 -10z"/>
<path d="M583 613 c-20 -8 -15 -31 8 -38 25 -8 44 7 36 29 -6 16 -21 19 -44 9z"/>
<path d="M100 325 l0 -285 26 10 c33 13 137 12 194 -1 51 -12 176 -15 209 -4
21 6 21 9 21 286 l0 279 -30 0 c-25 0 -30 -4 -30 -25 0 -22 -4 -25 -35 -25
-31 0 -35 3 -35 25 0 21 -5 25 -30 25 -25 0 -30 -4 -30 -25 0 -22 -4 -25 -35
-25 -31 0 -35 3 -35 25 0 21 -5 25 -30 25 -25 0 -30 -4 -30 -25 0 -22 -4 -25
-35 -25 -31 0 -35 3 -35 25 0 21 -5 25 -30 25 l-30 0 0 -285z m150 110 l75
-75 75 75 c57 57 81 75 102 75 49 0 35 -35 -49 -121 l-76 -79 76 -79 c84 -85
98 -121 50 -121 -21 0 -46 18 -103 75 l-75 75 -75 -75 c-57 -57 -81 -75 -102
-75 -51 0 -36 37 49 122 l78 78 -78 78 c-84 85 -99 122 -50 122 21 0 46 -18
103 -75z"/>
<path d="M177 603 c-13 -12 -7 -23 13 -23 11 0 20 7 20 15 0 15 -21 21 -33 8z"/>
<path d="M307 603 c-13 -12 -7 -23 13 -23 11 0 20 7 20 15 0 15 -21 21 -33 8z"/>
<path d="M430 595 c0 -8 9 -15 20 -15 11 0 20 7 20 15 0 8 -9 15 -20 15 -11 0
-20 -7 -20 -15z"/>
<path d="M71 544 c0 -11 3 -14 6 -6 3 7 2 16 -1 19 -3 4 -6 -2 -5 -13z"/>
<path d="M571 544 c0 -11 3 -14 6 -6 3 7 2 16 -1 19 -3 4 -6 -2 -5 -13z"/>
<path d="M572 490 c0 -14 2 -19 5 -12 2 6 2 18 0 25 -3 6 -5 1 -5 -13z"/>
<path d="M72 480 c0 -14 2 -19 5 -12 2 6 2 18 0 25 -3 6 -5 1 -5 -13z"/>
<path d="M793 405 c0 -44 1 -71 4 -60 2 11 6 30 9 43 8 37 34 27 34 -13 0 -19
5 -35 10 -35 16 0 12 56 -5 70 -8 7 -21 10 -29 7 -11 -4 -16 4 -19 31 -2 20
-4 1 -4 -43z"/>
<path d="M1533 405 c0 -44 2 -66 4 -48 4 31 28 61 39 50 4 -3 10 -21 14 -39
l8 -33 1 30 c1 40 -12 59 -37 53 -18 -5 -21 0 -25 31 -2 20 -4 0 -4 -44z"/>
<path d="M1943 405 c0 -44 2 -61 4 -37 2 23 2 59 0 80 -2 20 -4 1 -4 -43z"/>
<path d="M705 461 c16 -6 21 -20 26 -72 l6 -64 1 67 c2 54 5 67 20 71 9 3 -3
5 -28 5 -31 0 -39 -2 -25 -7z"/>
<path d="M1047 463 c-16 -15 -5 -45 23 -61 33 -19 37 -33 15 -52 -13 -10 -19
-9 -37 6 -14 13 -19 14 -16 5 7 -25 36 -37 56 -25 30 19 27 52 -7 72 -35 19
-37 47 -4 46 12 0 20 3 17 8 -6 10 -38 11 -47 1z"/>
<path d="M1680 405 c0 -37 4 -65 10 -65 6 0 10 11 10 23 0 16 9 28 25 35 43
20 27 72 -22 72 -22 0 -23 -4 -23 -65z m49 46 c17 -11 7 -41 -14 -41 -9 0 -15
9 -15 25 0 27 6 30 29 16z"/>
<path d="M1410 450 c0 -5 5 -10 10 -10 6 0 10 5 10 10 0 6 -4 10 -10 10 -5 0
-10 -4 -10 -10z"/>
<path d="M1980 450 c0 -5 5 -10 10 -10 6 0 10 5 10 10 0 6 -4 10 -10 10 -5 0
-10 -4 -10 -10z"/>
<path d="M1328 434 c-3 -11 -2 -40 2 -64 l6 -45 5 48 c5 53 -4 96 -13 61z"/>
<path d="M1369 435 c-2 -11 -2 -40 2 -65 6 -42 6 -43 7 -9 1 19 7 40 14 47 8
8 9 12 1 12 -6 0 -13 8 -15 18 -3 15 -4 14 -9 -3z"/>
<path d="M2459 435 c-2 -11 -2 -40 2 -65 6 -42 6 -43 7 -9 1 19 7 40 14 47 8
8 9 12 1 12 -6 0 -13 8 -15 18 -3 15 -4 14 -9 -3z"/>
<path d="M572 420 c0 -14 2 -19 5 -12 2 6 2 18 0 25 -3 6 -5 1 -5 -13z"/>
<path d="M72 410 c0 -14 2 -19 5 -12 2 6 2 18 0 25 -3 6 -5 1 -5 -13z"/>
<path d="M892 408 c-16 -16 -15 -53 3 -68 18 -15 47 -10 53 10 5 13 3 13 -12
1 -15 -12 -19 -12 -34 2 -15 16 -14 17 14 17 38 0 46 7 33 31 -11 22 -39 25
-57 7z m46 -16 c2 -7 -6 -12 -17 -12 -21 0 -27 11 -14 24 9 9 26 2 31 -12z"/>
<path d="M1142 408 c-21 -21 -14 -57 13 -70 20 -9 28 -9 38 1 10 11 8 12 -9 7
-28 -9 -52 19 -37 42 6 10 21 16 32 15 13 -2 20 1 16 7 -8 14 -38 13 -53 -2z"/>
<path d="M1230 406 c-28 -35 11 -93 48 -70 35 22 22 84 -18 84 -10 0 -23 -7
-30 -14z m54 -19 c16 -25 -16 -56 -38 -37 -19 15 -21 46 -3 53 18 8 29 3 41
-16z"/>
<path d="M1417 413 c-11 -10 -8 -73 3 -73 6 0 10 18 10 40 0 41 -2 45 -13 33z"/>
<path d="M1463 404 c-3 -9 3 -21 16 -30 24 -17 18 -39 -8 -29 -11 4 -13 3 -5
-5 13 -13 44 -3 44 16 0 7 -9 18 -20 24 -23 13 -27 35 -4 26 8 -3 12 -2 9 4
-9 15 -25 12 -32 -6z"/>
<path d="M1781 407 c-15 -15 -14 -52 2 -65 6 -6 24 -10 39 -9 26 2 28 5 28 42
0 37 -2 40 -29 42 -15 1 -33 -3 -40 -10z m53 -20 c16 -25 -16 -56 -38 -37 -19
15 -20 32 -4 48 15 15 28 11 42 -11z"/>
<path d="M1882 370 c1 -40 2 -41 5 -10 2 19 11 40 20 47 13 10 13 12 -6 10
-18 -1 -21 -7 -19 -47z"/>
<path d="M1980 381 c0 -23 5 -41 10 -41 6 0 10 15 10 34 0 19 -4 38 -10 41 -6
4 -10 -10 -10 -34z"/>
<path d="M2030 404 c-10 -11 -11 -23 -4 -42 8 -21 16 -27 42 -28 31 -1 32 0
32 40 0 39 -2 42 -29 44 -16 1 -34 -5 -41 -14z m58 -25 c4 -30 -22 -46 -44
-28 -17 14 -18 31 -2 47 19 19 43 9 46 -19z"/>
<path d="M2130 378 c0 -21 4 -38 10 -38 5 0 7 6 4 14 -7 18 14 58 27 51 5 -4
10 -23 10 -43 1 -20 3 -28 6 -17 2 11 6 30 9 43 7 35 28 21 35 -24 l7 -39 -2
45 -1 45 -52 1 -53 1 0 -39z"/>
<path d="M2276 404 c-9 -8 -16 -22 -16 -29 0 -15 27 -45 40 -45 17 0 40 13 40
22 0 6 -6 5 -15 -2 -16 -13 -45 -7 -45 10 0 5 14 10 30 10 31 0 39 17 18 38
-16 16 -33 15 -52 -4z m52 -11 c2 -8 -6 -13 -22 -13 -25 0 -33 10 -19 24 10
10 36 3 41 -11z"/>
<path d="M2371 371 l2 -46 6 40 c4 26 11 40 21 40 10 0 17 -14 21 -40 l7 -40
-2 45 c-1 42 -3 45 -28 46 -27 1 -28 -1 -27 -45z"/>
<path d="M72 350 c0 -14 2 -19 5 -12 2 6 2 18 0 25 -3 6 -5 1 -5 -13z"/>
<path d="M572 350 c0 -14 2 -19 5 -12 2 6 2 18 0 25 -3 6 -5 1 -5 -13z"/>
<path d="M572 290 c0 -14 2 -19 5 -12 2 6 2 18 0 25 -3 6 -5 1 -5 -13z"/>
<path d="M72 280 c0 -14 2 -19 5 -12 2 6 2 18 0 25 -3 6 -5 1 -5 -13z"/>
<path d="M950 210 c0 -40 4 -70 10 -70 6 0 10 30 10 70 0 40 -4 70 -10 70 -6
0 -10 -30 -10 -70z"/>
<path d="M1450 246 c0 -28 -3 -33 -19 -29 -20 5 -51 -20 -51 -42 0 -23 31 -47
54 -41 12 3 24 6 29 6 11 0 9 140 -3 140 -5 0 -10 -15 -10 -34z m-5 -71 c0
-23 -4 -30 -20 -30 -21 0 -31 25 -21 51 11 28 41 12 41 -21z"/>
<path d="M1813 205 c0 -56 2 -68 6 -40 4 26 11 40 21 40 10 0 17 -14 21 -40
l7 -40 -2 45 c-1 38 -4 45 -21 45 -15 0 -22 9 -26 35 -4 22 -6 6 -6 -45z"/>
<path d="M2073 205 c0 -44 2 -61 4 -37 2 23 2 59 0 80 -2 20 -4 1 -4 -43z"/>
<path d="M2112 210 c-2 -75 -2 -76 24 -78 34 -3 54 14 54 43 0 28 -24 49 -49
42 -17 -4 -21 1 -24 32 -2 20 -4 2 -5 -39z m62 -23 c8 -12 7 -21 -5 -32 -21
-21 -49 -9 -49 20 0 36 34 44 54 12z"/>
<path d="M702 198 c0 -40 3 -58 5 -40 3 18 10 32 18 32 15 0 45 27 45 40 0 16
-31 40 -51 40 -17 0 -19 -7 -17 -72z m48 32 c0 -23 -29 -35 -36 -15 -4 8 -4
22 0 30 7 20 36 8 36 -15z"/>
<path d="M815 250 c3 -5 11 -10 16 -10 6 0 7 5 4 10 -3 6 -11 10 -16 10 -6 0
-7 -4 -4 -10z"/>
<path d="M1345 250 c-3 -5 -1 -10 4 -10 6 0 11 5 11 10 0 6 -2 10 -4 10 -3 0
-8 -4 -11 -10z"/>
<path d="M1957 198 c-26 -59 -31 -92 -7 -49 15 29 62 28 84 -1 15 -21 15 -20
0 17 -9 22 -20 52 -26 68 -5 15 -13 27 -17 27 -4 0 -20 -28 -34 -62z m43 23
c0 -5 3 -16 6 -25 4 -12 0 -16 -15 -16 -22 0 -25 8 -15 34 7 17 24 22 24 7z"/>
<path d="M572 220 c0 -14 2 -19 5 -12 2 6 2 18 0 25 -3 6 -5 1 -5 -13z"/>
<path d="M72 210 c0 -14 2 -19 5 -12 2 6 2 18 0 25 -3 6 -5 1 -5 -13z"/>
<path d="M789 199 c-18 -35 3 -70 41 -67 28 2 30 5 30 43 0 38 -2 41 -30 43
-21 2 -32 -4 -41 -19z m45 5 c21 -8 20 -50 -1 -58 -24 -10 -46 21 -32 45 11
21 11 21 33 13z"/>
<path d="M891 170 c2 -34 3 -37 6 -15 3 17 12 38 20 47 14 15 13 17 -6 15 -18
-1 -21 -7 -20 -47z"/>
<path d="M1001 207 c-15 -15 -14 -52 2 -65 6 -6 24 -10 39 -9 26 2 28 5 28 42
0 37 -2 40 -29 42 -15 1 -33 -3 -40 -10z m53 -20 c16 -25 -16 -56 -38 -37 -19
15 -20 32 -4 48 15 15 28 11 42 -11z"/>
<path d="M1101 171 l2 -46 6 40 c4 26 11 40 21 40 10 0 17 -14 21 -40 l6 -40
2 37 c1 35 15 57 28 44 3 -3 9 -23 13 -43 l8 -38 1 35 c1 49 -7 57 -61 57
l-48 -1 1 -45z"/>
<path d="M1239 199 c-18 -35 3 -70 41 -67 28 2 30 5 30 43 0 38 -2 41 -30 43
-21 2 -32 -4 -41 -19z m45 5 c21 -8 20 -50 -1 -58 -24 -10 -46 21 -32 45 11
21 11 21 33 13z"/>
<path d="M1353 175 c0 -27 2 -38 4 -22 2 15 2 37 0 50 -2 12 -4 0 -4 -28z"/>
<path d="M1551 170 c2 -34 3 -38 6 -15 9 59 43 70 43 14 0 -16 5 -29 10 -29
14 0 12 57 -2 67 -7 4 -23 8 -35 8 -21 1 -23 -3 -22 -45z"/>
<path d="M1651 207 c-15 -15 -14 -52 3 -66 7 -6 25 -10 40 -9 23 2 26 6 26 43
0 37 -2 40 -29 42 -15 1 -33 -3 -40 -10z m53 -20 c16 -25 -16 -56 -38 -37 -19
15 -20 32 -4 48 15 15 28 11 42 -11z"/>
<path d="M2221 207 c-15 -15 -14 -52 2 -65 6 -6 24 -10 39 -9 26 2 28 5 28 42
0 37 -2 40 -29 42 -15 1 -33 -3 -40 -10z m53 -20 c8 -12 7 -21 -5 -32 -21 -21
-49 -9 -49 20 0 36 34 44 54 12z"/>
<path d="M1898 173 c7 -3 16 -2 19 1 4 3 -2 6 -13 5 -11 0 -14 -3 -6 -6z"/>
<path d="M72 150 c0 -14 2 -19 5 -12 2 6 2 18 0 25 -3 6 -5 1 -5 -13z"/>
<path d="M572 150 c0 -14 2 -19 5 -12 2 6 2 18 0 25 -3 6 -5 1 -5 -13z"/>
<path d="M572 90 c0 -14 2 -19 5 -12 2 6 2 18 0 25 -3 6 -5 1 -5 -13z"/>
<path d="M72 80 c0 -14 2 -19 5 -12 2 6 2 18 0 25 -3 6 -5 1 -5 -13z"/>
<path d="M71 24 c0 -11 3 -14 6 -6 3 7 2 16 -1 19 -3 4 -6 -2 -5 -13z"/>
<path d="M566 25 c-3 -8 -1 -15 4 -15 6 0 10 7 10 15 0 8 -2 15 -4 15 -2 0 -6
-7 -10 -15z"/>
</g>
</svg>
